<svg width="305" height="187" viewBox="0 0 305 187" fill="none" xmlns="http://www.w3.org/2000/svg">
<path d="M97.3015 66.6454L95.3675 67.2585C95.3432 67.1536 95.3149 67.0487 95.2825 66.9439C95.0316 66.1392 94.9183 67.5852 94.2669 67.0488C94.3134 67.7425 93.312 60.6115 93.2149 61.2972C93.1745 61.5856 93.5245 66.3631 93.4577 66.6454L78.4386 66.7886C78.5235 65.3467 77.7528 65.9013 77.071 64.6287C76.6684 65.8246 76.6057 64.9575 75.9684 66.0404C75.7014 66.4982 75.4161 66.9378 75.1086 67.3674C74.961 67.5791 74.8052 67.7868 74.6454 67.9926L74.441 68.0571L73.4295 48.2937C73.4295 41.7779 79.094 38.6137 83.5448 42.8487C85.9096 45.0989 91.6936 42.153 93.0268 44.2866C94.358 46.4223 94.8738 49.3706 94.8738 52.6296L97.3015 66.6454Z" fill="#2F2E41"/>
<path d="M73.6173 178.902L76.8757 178.979L78.692 164.386L73.8834 164.273L73.6173 178.902Z" fill="#FFB7B7"/>
<path d="M84.7965 185.679C84.7965 186.227 84.4058 186.672 83.924 186.672H77.4563C77.4563 186.672 76.8199 184.122 74.2249 183.024L74.0458 186.672H70.7094L71.1136 180.806C71.1136 180.806 70.2211 177.668 72.0746 176.064C73.9282 174.46 72.4269 174.683 72.4269 174.683L73.156 171.053L78.1978 171.644L78.2348 177.343L80.6815 182.999L84.2702 184.767C84.5897 184.924 84.7965 185.282 84.7965 185.679Z" fill="#2F2E41"/>
<path d="M83.5306 176.524L86.6628 177.422L92.1343 163.767L87.512 162.441L83.5306 176.524Z" fill="#FFB7B7"/>
<path d="M92.6187 185.907C92.4791 186.437 91.988 186.769 91.5219 186.647L85.2659 185.011C85.2659 185.011 85.2995 182.383 83.0689 180.665L81.967 184.148L78.7398 183.304L80.624 177.733C80.624 177.733 80.5596 174.472 82.7608 173.389C84.962 172.306 83.453 172.142 83.453 172.142L85.0825 168.815L89.8087 170.662L88.3938 176.184L89.3205 182.274L92.3419 184.891C92.6108 185.124 92.7196 185.523 92.6187 185.907Z" fill="#2F2E41"/>
<path d="M91.4346 61.3099L81.5217 62.3183L75.2502 98.215L94.2669 101.24L91.4346 61.3099Z" fill="#6C63FF"/>
<path d="M72.418 67.965L73.4295 91.3583L64.5281 106.887L71.0018 112.735C71.0018 112.735 82.9378 89.14 83.3424 82.6866C83.747 76.2333 81.42 62.9005 81.42 62.9005L72.418 67.965Z" fill="#2F2E41"/>
<path d="M100.741 67.965L99.7292 91.3583L108.631 106.887L94.8739 113.138C94.8739 113.138 90.2208 89.14 89.8162 82.6866C89.4116 76.2333 91.7387 62.9005 91.7387 62.9005L100.741 67.965Z" fill="#2F2E41"/>
<path d="M76.4641 95.9966L71.8111 96.6016L69.1811 124.633L72.8226 167.075H78.7802L83.1401 119.793L90.8277 137.54L85.203 167.075L90.8277 167.647L102.157 136.935L94.2669 101.24L76.4641 95.9966Z" fill="#2F2E41"/>
<path d="M95.5605 121.303C95.7806 120.53 96.1575 119.871 96.6063 119.401L98.2367 111.908L101.791 112.786L99.7541 120.292C99.888 120.927 99.8612 121.685 99.6411 122.458C99.1383 124.223 97.8171 125.395 96.6903 125.076C95.5635 124.758 95.0576 123.068 95.5605 121.303Z" fill="#FFB6B6"/>
<path d="M96.0521 66.4496C96.0521 66.4496 102.614 66.1165 103.092 70.4541C103.57 74.7916 105.098 99.4955 105.098 99.4955L101.555 116.17L96.5023 115.47L98.7351 94.2453L96.0521 66.4496Z" fill="#2F2E41"/>
<path d="M39.8125 79.406C40.5594 79.7149 41.1743 80.1664 41.5919 80.6671L48.8932 83.1621L47.6006 86.5906L40.3334 83.6906C39.6828 83.7495 38.9278 83.6343 38.181 83.3254C36.4748 82.6196 35.4569 81.1701 35.9075 80.0878C36.358 79.0055 38.1063 78.7002 39.8125 79.406Z" fill="#FFB6B6"/>
<path d="M81.5037 69.0017L64.8474 91.4141L45.3227 86.0547L46.1716 80.9773L61.0389 83.7843L69.3332 71.0733C72.0416 65.8545 77.3797 64.8035 81.5037 69.0017Z" fill="#2F2E41"/>
<path d="M85.7478 59.2678C89.7824 59.2678 93.0531 56.0075 93.0531 51.9856C93.0531 47.9637 89.7824 44.7034 85.7478 44.7034C81.7132 44.7034 78.4425 47.9637 78.4425 51.9856C78.4425 56.0075 81.7132 59.2678 85.7478 59.2678Z" fill="#FFB7B7"/>
<path d="M96.4923 51.7221H94.0311L93.3626 50.824C93.0379 50.824 92.7987 51.6874 92.4879 51.6215C91.5398 51.4205 90.6697 50.9288 89.9568 50.2432C89.8966 50.1853 89.8342 50.1296 89.7697 50.0765L89.7708 50.093C89.8277 50.9808 89.0931 51.7221 88.2006 51.7221H83.4546C82.1588 51.7221 81.2138 52.9443 81.5437 54.1934L81.1171 69.4688C81.1171 66.351 67.2794 50.4314 76.6664 44.0587C78.8396 42.5834 80.4171 42.8487 83.5448 42.8487C88.352 40.293 94.3996 42.678 95.9616 47.881C96.3115 49.0465 96.4923 50.3351 96.4923 51.7221Z" fill="#2F2E41"/>
<path d="M237.829 51.7724C237.477 51.4035 237.231 47.342 236.795 47.0708C236.969 47.653 236.89 51.9966 236.864 52.6042C233.033 55.2082 230.435 48.5174 227.725 48.5174C222.816 48.5174 216.841 37.4976 216.841 32.6043C216.841 27.711 223.025 25.1122 227.544 23.2011C233.53 20.6695 239.003 26.3119 239.698 31.1577C241.512 43.8158 240.017 49.3492 237.829 51.7724Z" fill="#2F2E41"/>
<path d="M226.076 41.6876C230.111 41.6876 233.381 38.4273 233.381 34.4054C233.381 30.3835 230.111 27.1232 226.076 27.1232C222.042 27.1232 218.771 30.3835 218.771 34.4054C218.771 38.4273 222.042 41.6876 226.076 41.6876Z" fill="#A0616A"/>
<path d="M215.446 32.8245L219.087 33.275L219.982 32.7409L220.081 33.3981C220.594 33.4615 221.113 33.2635 221.423 32.8517C221.67 32.5232 221.974 32.2375 222.321 32.0169C222.275 32.2564 222.24 32.4977 222.216 32.7396C222.166 33.2445 222.521 33.6999 223.026 33.7624L228.385 34.4255C229.67 34.5846 230.457 35.9136 229.975 37.1127C229.975 37.1127 231.277 34.307 232.442 35.136C234.981 36.9443 242.297 33.115 236.068 27.654C234.094 25.9231 232.495 25.9927 229.392 25.6086C224.937 22.482 218.64 24.1063 216.447 29.0779C215.956 30.1915 215.617 31.4481 215.446 32.8245Z" fill="#2F2E41"/>
<path d="M231.552 78.5545H210.224C212.011 74.5779 213.11 70.7907 211.392 67.7783L231.552 66.6133C230.545 70.68 230.422 74.6709 231.552 78.5545Z" fill="#A0616A"/>
<path d="M228.923 43.3133L220.45 42.7308L216.944 47.0996L215.166 47.4217C212.502 47.9046 210.605 50.2748 210.724 52.9717L211.415 68.6362L231.667 70.1083L236.519 49.7098L230.676 47.3908L228.923 43.3133Z" fill="#E6E6E6"/>
<path d="M232.605 171.522L229.134 171.603L227.198 156.055L232.322 155.934L232.605 171.522Z" fill="#A0616A"/>
<path d="M220.694 178.742C220.694 179.327 221.11 179.801 221.624 179.801H228.515C228.515 179.801 229.193 177.083 231.958 175.914L232.149 179.801H235.704L235.273 173.551C235.273 173.551 236.224 170.207 234.249 168.498C232.274 166.789 233.874 167.027 233.874 167.027L233.097 163.158L227.725 163.788L227.686 169.86L225.079 175.887L221.255 177.77C220.915 177.938 220.694 178.32 220.694 178.742Z" fill="#2F2E41"/>
<path d="M219.907 171.16L216.435 171.242L214.5 155.694L219.624 155.573L219.907 171.16Z" fill="#A0616A"/>
<path d="M207.996 178.38C207.996 178.965 208.412 179.439 208.926 179.439H215.817C215.817 179.439 216.495 176.722 219.26 175.552L219.451 179.439H223.006L222.575 173.189C222.575 173.189 223.526 169.845 221.551 168.136C219.576 166.427 221.176 166.665 221.176 166.665L220.399 162.797L215.027 163.427L214.987 169.499L212.38 175.526L208.557 177.409C208.216 177.576 207.996 177.958 207.996 178.38Z" fill="#2F2E41"/>
<path d="M211.036 75.642L208.134 85.0452L207.045 123.381L214.588 158.882L220.403 158.083L221.806 109.109L225.416 158.083L233.597 157.774C233.597 157.774 240.423 86.8535 231.833 78.1259L231.057 74.8276L211.036 75.642Z" fill="#2F2E41"/>
<path d="M205.743 61.1281L193.773 69.8357L180.994 74.7927L180.106 71.7848L190.577 65.5896L203.583 55.6562L205.743 61.1281Z" fill="#A0616A"/>
<path d="M179.282 76.0562C181.009 75.1964 181.994 73.6707 181.482 72.6485C180.97 71.6263 179.154 71.4947 177.427 72.3545C175.7 73.2143 174.715 74.7399 175.228 75.7621C175.74 76.7843 177.555 76.916 179.282 76.0562Z" fill="#A0616A"/>
<path d="M213.404 48.7064C213.404 48.7064 217.123 53.7956 214.435 55.7973C211.748 57.7991 203.604 67.192 203.604 67.192L196.873 59.8129L213.404 48.7064Z" fill="#E6E6E6"/>
<path d="M38.8846 0C28.7658 0 20.5629 8.17702 20.5629 18.2639C20.5629 26.7467 28.0235 37.7931 35.0194 43.2315C35.6481 43.7202 36.3503 44.0605 37.0821 44.2637L37.7692 46.7294C37.9121 47.2421 38.3803 47.5968 38.914 47.5968H39.001C39.5579 47.5968 40.0401 47.2113 40.1609 46.6694L40.7257 44.1359C41.3365 43.9197 41.9211 43.6053 42.4529 43.1902C50.2817 37.079 57.2063 27.0336 57.2063 18.2639C57.2063 8.17702 49.0034 0 38.8846 0Z" fill="#6C63FF"/>
<path d="M41.9383 45.383C39.7366 50.8816 37.9659 49.6288 36.3862 45.383V44.2761H41.9383L41.9383 45.383Z" fill="#3F3D56"/>
<path d="M39.4398 44.8323L39.3149 55.2676L39.3094 55.6219L39.2844 91.8729V93.5554L39.2788 94.0868H38.7208L38.7264 93.5831V91.8729L38.7542 55.6219L38.7847 53.123L38.8846 44.8268L39.4398 44.8323Z" fill="#3F3D56"/>
<path d="M39.3399 94.0868H38.7792L38.7264 93.5831L38.7153 91.873L38.4905 55.6219L37.3467 44.7687L37.8992 44.7106L38.7847 53.123L39.0484 55.6219L39.1595 91.873L39.1622 92.407L39.2844 93.5554L39.3399 94.0868Z" fill="#3F3D56"/>
<path d="M40.9777 44.7687L39.834 55.6219L39.512 91.873L39.4926 94.0868H38.9846L39.1622 92.407L39.165 91.873L39.276 55.6219L39.3149 55.2677L40.4253 44.7106L40.9777 44.7687Z" fill="#3F3D56"/>
<path d="M272.275 48.65C266.186 43.7222 257.243 44.6478 252.3 50.7174C248.142 55.8218 247.218 66.1021 248.762 72.7815C248.901 73.3817 249.157 73.9285 249.498 74.4072L248.703 76.2255C248.538 76.6035 248.645 77.045 248.967 77.3049L249.019 77.3473C249.354 77.6185 249.833 77.6213 250.171 77.354L251.753 76.1046C252.226 76.272 252.732 76.3675 253.256 76.3767C260.962 76.512 270.051 73.8396 274.349 68.5626C279.293 62.493 278.364 53.5778 272.275 48.65Z" fill="#FF6584"/>
<path d="M251.871 77.4456C245.874 81.3894 246.225 79.0353 248.531 74.7417L249.073 74.0757L252.414 76.7795L251.871 77.4456Z" fill="#3F3D56"/>
<path d="M250.638 75.8975L245.448 82.1159L245.272 82.3264L227.491 104.128L226.666 105.14L226.402 105.457L226.066 105.185L226.317 104.885L227.155 103.856L244.937 82.056L246.18 80.5672L250.306 75.6238L250.638 75.8975Z" fill="#3F3D56"/>
<path d="M226.439 105.487L226.102 105.214L226.317 104.885L227.148 103.851L244.779 81.9276L249.41 74.8398L249.77 75.0739L246.18 80.5672L245.115 82.1993L227.415 104.067L227.155 104.39L226.666 105.14L226.439 105.487Z" fill="#3F3D56"/>
<path d="M251.594 76.6082L245.587 82.5819L227.627 104.239L226.531 105.561L226.225 105.314L227.155 104.39L227.419 104.07L245.251 82.3102L245.448 82.116L251.29 76.3042L251.594 76.6082Z" fill="#3F3D56"/>
<path d="M159.322 16.687C151.541 20.4902 148.327 29.8609 152.142 37.617C155.351 44.1397 165.266 49.8294 172.702 51.3817C173.37 51.5212 174.039 51.519 174.678 51.4002L176.139 53.0379C176.443 53.3784 176.937 53.4752 177.348 53.2746L177.415 53.2419C177.843 53.0326 178.068 52.5549 177.956 52.0928L177.432 49.9325C177.82 49.5366 178.15 49.0751 178.402 48.5561C182.11 40.9145 183.635 30.5876 180.318 23.8443C176.503 16.0882 167.103 12.8837 159.322 16.687Z" fill="#6C63FF"/>
<path d="M178.836 50.4356C178.718 53.3395 177.832 54.9445 174.567 52.5224L174.148 51.6712L178.417 49.5845L178.836 50.4356Z" fill="#3F3D56"/>
<path d="M176.706 50.9513L180.557 59.0223L180.687 59.2967L177.738 88.8396L178.374 90.1333L178.571 90.544L178.142 90.7537L177.956 90.3643L177.309 89.0493L180.26 59.5054L179.339 57.5725L176.277 51.1557L176.706 50.9513Z" fill="#3F3D56"/>
<path d="M178.618 90.521L178.187 90.7318L177.956 90.3644L177.3 89.0535L180.057 59.6046L175.073 51.6891L175.476 51.4368L179.339 57.5725L180.486 59.3948L177.642 88.8866L177.846 89.2962L178.374 90.1333L178.618 90.521Z" fill="#3F3D56"/>
<path d="M177.865 50.3242L181.091 59.0994L177.913 88.754L178.735 90.4635L178.345 90.6545L177.846 89.2961L177.646 88.8844L180.661 59.3092L180.557 59.0222L177.418 50.4872L177.865 50.3242Z" fill="#3F3D56"/>
<path d="M239.091 66.6883L238.9 81.4581L235.214 94.6246L232.267 93.5287L233.575 81.4603L233.403 65.1287L239.091 66.6883Z" fill="#A0616A"/>
<path d="M235.201 96.7476C235.547 94.8544 234.913 93.1537 233.785 92.949C232.658 92.7444 231.463 94.1132 231.117 96.0064C230.772 97.8997 231.405 99.6004 232.533 99.805C233.661 100.01 234.855 98.6409 235.201 96.7476Z" fill="#A0616A"/>
<path d="M234.617 49.1018C234.617 49.1018 240.932 49.1885 240.927 52.5327C240.922 55.877 240.229 68.3234 240.229 68.3234L230.269 69.2659L234.617 49.1018Z" fill="#E6E6E6"/>
</svg>
