<svg width="393" height="236" viewBox="0 0 393 236" fill="none" xmlns="http://www.w3.org/2000/svg">
<g clip-path="url(#clip0_255_2350)">
<path d="M65.9478 224.646C65.6329 224.661 65.3212 224.578 65.0549 224.409C64.7885 224.24 64.5805 223.994 64.4589 223.703C64.3373 223.412 64.308 223.091 64.375 222.782C64.4421 222.474 64.6022 222.194 64.8336 221.98L64.939 221.561C64.9251 221.528 64.9112 221.494 64.8971 221.461C64.5799 220.711 64.0483 220.072 63.3692 219.623C62.6901 219.175 61.8937 218.937 61.08 218.94C60.2663 218.943 59.4717 219.187 58.7959 219.64C58.1202 220.094 57.5934 220.737 57.2817 221.489C56.0362 224.49 54.4504 227.497 54.0599 230.67C53.888 232.073 53.9605 233.495 54.2743 234.873C51.3489 228.488 49.8298 221.549 49.82 214.525C49.8194 212.762 49.9173 211.001 50.1132 209.25C50.2751 207.814 50.4997 206.388 50.7871 204.973C52.355 197.292 55.7215 190.094 60.6101 183.968C62.9761 182.676 64.8896 180.69 66.0926 178.277C66.5284 177.409 66.8364 176.483 67.0071 175.527C66.7402 175.562 66.0007 171.495 66.202 171.246C65.8301 170.681 65.1643 170.4 64.7581 169.849C62.7377 167.109 59.9542 167.587 58.5011 171.312C55.3969 172.879 55.3668 175.479 57.2716 177.979C58.4833 179.57 58.6499 181.722 59.7131 183.425C59.6037 183.565 59.4899 183.701 59.3806 183.841C57.3809 186.413 55.6381 189.176 54.1771 192.089C54.5324 188.826 54.1083 185.525 52.9398 182.458C51.7555 179.599 49.5357 177.192 47.5809 174.72C45.2329 171.752 40.4181 173.048 40.0044 176.81C40.0004 176.847 39.9965 176.883 39.9927 176.92C40.283 177.083 40.5672 177.257 40.8453 177.441C41.1947 177.675 41.4654 178.009 41.622 178.399C41.7785 178.789 41.8137 179.217 41.7228 179.628C41.6319 180.038 41.4193 180.411 41.1127 180.699C40.8061 180.986 40.4198 181.174 40.0046 181.238L39.9621 181.245C40.0655 182.292 40.2483 183.329 40.509 184.349C38.0012 194.052 43.4153 197.586 51.1458 197.745C51.3165 197.832 51.4828 197.92 51.6535 198.003C50.1856 202.165 49.2648 206.5 48.9144 210.9C48.716 213.496 48.7277 216.103 48.9494 218.697L48.9362 218.605C48.3761 215.721 46.8384 213.118 44.5826 211.237C41.2322 208.483 36.4988 207.469 32.8843 205.256C32.5002 205.009 32.0535 204.878 31.597 204.877C31.1406 204.875 30.6933 205.005 30.3079 205.25C29.9226 205.495 29.6153 205.845 29.4223 206.259C29.2293 206.672 29.1586 207.133 29.2185 207.586C29.2234 207.618 29.2283 207.65 29.2333 207.682C29.7721 207.902 30.2967 208.155 30.8041 208.44C31.0945 208.604 31.3787 208.778 31.6568 208.962C32.0061 209.195 32.2768 209.529 32.4334 209.919C32.59 210.309 32.6251 210.737 32.5342 211.148C32.4433 211.558 32.2307 211.931 31.9241 212.219C31.6175 212.506 31.2312 212.694 30.816 212.758L30.7734 212.765C30.7428 212.769 30.7166 212.774 30.686 212.778C31.6066 214.977 32.8987 217.002 34.5058 218.763C36.0738 227.233 42.8085 228.037 50.0126 225.57H50.017C50.8074 229.007 51.9527 232.352 53.4343 235.551H65.6419C65.6857 235.416 65.7251 235.276 65.7645 235.14C64.6345 235.211 63.5001 235.143 62.3866 234.939C63.2923 233.827 64.198 232.706 65.1038 231.594C65.124 231.573 65.143 231.551 65.1607 231.528C65.6201 230.959 66.0839 230.394 66.5433 229.825L66.5436 229.825C66.5681 228.08 66.3675 226.339 65.9478 224.646Z" fill="#F2F2F2"/>
<path d="M320.925 224.646C321.24 224.661 321.552 224.578 321.818 224.409C322.084 224.24 322.292 223.994 322.414 223.703C322.536 223.412 322.565 223.091 322.498 222.782C322.431 222.474 322.271 222.194 322.039 221.98L321.934 221.561C321.948 221.528 321.962 221.494 321.976 221.461C322.293 220.711 322.825 220.072 323.504 219.623C324.183 219.175 324.979 218.937 325.793 218.94C326.606 218.943 327.401 219.187 328.077 219.64C328.753 220.094 329.279 220.737 329.591 221.489C330.837 224.49 332.422 227.497 332.813 230.67C332.985 232.073 332.912 233.495 332.599 234.873C335.524 228.488 337.043 221.549 337.053 214.525C337.053 212.762 336.956 211.001 336.76 209.25C336.598 207.814 336.373 206.388 336.086 204.973C334.518 197.292 331.151 190.094 326.263 183.968C323.897 182.676 321.983 180.69 320.78 178.277C320.344 177.409 320.036 176.483 319.866 175.527C320.133 175.562 320.872 171.495 320.671 171.246C321.043 170.681 321.709 170.4 322.115 169.849C324.135 167.109 326.919 167.587 328.372 171.312C331.476 172.879 331.506 175.479 329.601 177.979C328.389 179.57 328.223 181.722 327.16 183.425C327.269 183.565 327.383 183.701 327.492 183.841C329.492 186.413 331.235 189.176 332.696 192.089C332.34 188.826 332.765 185.525 333.933 182.458C335.117 179.599 337.337 177.192 339.292 174.72C341.64 171.752 346.455 173.048 346.868 176.81C346.872 176.847 346.876 176.883 346.88 176.92C346.59 177.083 346.306 177.257 346.028 177.441C345.678 177.675 345.407 178.009 345.251 178.399C345.094 178.789 345.059 179.217 345.15 179.628C345.241 180.038 345.454 180.411 345.76 180.699C346.067 180.986 346.453 181.174 346.868 181.238L346.911 181.245C346.807 182.292 346.625 183.329 346.364 184.349C348.872 194.052 343.458 197.586 335.727 197.745C335.556 197.832 335.39 197.92 335.219 198.003C336.687 202.165 337.608 206.5 337.958 210.9C338.157 213.496 338.145 216.103 337.923 218.697L337.937 218.605C338.497 215.721 340.035 213.118 342.29 211.237C345.641 208.483 350.374 207.469 353.989 205.256C354.373 205.009 354.819 204.878 355.276 204.877C355.732 204.875 356.18 205.005 356.565 205.25C356.95 205.495 357.258 205.845 357.451 206.259C357.644 206.672 357.714 207.133 357.654 207.586C357.649 207.618 357.645 207.65 357.64 207.682C357.101 207.902 356.576 208.155 356.069 208.44C355.778 208.604 355.494 208.778 355.216 208.962C354.867 209.195 354.596 209.529 354.439 209.919C354.283 210.309 354.248 210.737 354.339 211.148C354.43 211.558 354.642 211.931 354.949 212.219C355.255 212.506 355.642 212.694 356.057 212.758L356.099 212.765C356.13 212.769 356.156 212.774 356.187 212.778C355.266 214.977 353.974 217.002 352.367 218.763C350.799 227.233 344.064 228.037 336.86 225.57H336.856C336.065 229.007 334.92 232.352 333.439 235.551H321.231C321.187 235.416 321.148 235.276 321.108 235.14C322.238 235.211 323.373 235.143 324.486 234.939C323.581 233.827 322.675 232.706 321.769 231.594C321.749 231.573 321.73 231.551 321.712 231.528C321.253 230.959 320.789 230.394 320.33 229.825L320.329 229.825C320.305 228.08 320.505 226.339 320.925 224.646Z" fill="#F2F2F2"/>
<path d="M79.9888 235.278H99.6881C103.057 223.928 99.7061 197.103 104.147 186.139C112.667 165.118 123.552 142.937 143.867 132.672C152.541 128.289 161.999 126.577 171.658 126.671C185.001 126.797 198.718 130.381 211.278 135.13C216.415 137.068 221.506 139.2 226.576 141.378C245.679 149.591 264.575 158.537 285.118 160.954C311.114 164.012 341.678 152.375 348.778 127.31C354.196 108.12 344.437 88.1972 334.202 71.0586C323.968 53.9201 312.527 35.5825 314.396 15.7396C314.403 15.673 314.409 15.5997 314.423 15.5331C315.126 8.40594 319.379 3.28383 325.321 0H299.452C299.111 18.5107 309.814 34.8498 319.446 50.9826C329.681 68.1145 339.44 88.044 334.022 107.234C326.921 132.292 268.13 102.919 242.134 99.8548C234.793 98.9956 246.454 102.053 239.455 99.8548C228.476 96.4111 227.259 127.996 216.576 123.36C209.925 120.469 203.267 117.598 196.521 115.047C193.728 113.988 190.875 112.996 187.988 112.077C187.981 112.077 187.981 112.077 187.975 112.07C168.59 105.929 147.39 103.537 129.48 112.416C129.359 112.476 129.232 112.536 129.111 112.596C108.796 122.854 97.911 145.035 89.391 166.057C82.3511 183.435 83.4585 216.947 79.9888 235.278Z" fill="#F2F2F2"/>
<path d="M189.588 234.697C239.557 234.697 280.065 194.167 280.065 144.172C280.065 94.1771 239.557 53.6479 189.588 53.6479C139.619 53.6479 99.1106 94.1771 99.1106 144.172C99.1106 194.167 139.619 234.697 189.588 234.697Z" fill="white"/>
<path d="M189.329 235.278C99.8113 237.335 97.8484 194.784 97.8484 144.172C97.8484 93.561 139.003 52.3854 189.588 52.3854C240.173 52.3854 281.327 93.561 281.327 144.172C281.327 194.784 239.915 235.278 189.329 235.278ZM189.588 54.911C140.394 54.911 101.201 94.9603 100.373 144.172C99.6022 189.945 148.203 247.063 189.588 233.434C211.781 208.979 274.528 182.64 278.803 144.172C284.239 95.2548 238.781 54.911 189.588 54.911Z" fill="#3F3D56"/>
<path d="M177.245 191.286C175.682 191.286 174.141 190.922 172.744 190.223C171.347 189.523 170.131 188.508 169.194 187.257L144.511 154.328C143.717 153.27 143.139 152.066 142.811 150.785C142.482 149.504 142.409 148.171 142.596 146.861C142.783 145.552 143.226 144.292 143.899 143.154C144.572 142.015 145.463 141.021 146.521 140.227C147.579 139.434 148.782 138.857 150.063 138.528C151.344 138.2 152.677 138.128 153.985 138.315C155.294 138.503 156.553 138.946 157.69 139.621C158.828 140.295 159.821 141.187 160.614 142.246L176.762 163.787L218.239 101.541C219.72 99.3204 222.022 97.7792 224.639 97.2563C227.255 96.7334 229.972 97.2715 232.193 98.7525C234.413 100.233 235.954 102.536 236.478 105.154C237.002 107.771 236.466 110.49 234.987 112.712L185.62 186.802C184.727 188.142 183.526 189.248 182.117 190.027C180.709 190.807 179.134 191.238 177.525 191.283C177.432 191.284 177.338 191.286 177.245 191.286Z" fill="#F2F2F2"/>
<path d="M2.88438e-06 235.348C-0.000252341 235.434 0.0164327 235.519 0.0490932 235.598C0.0817537 235.677 0.129748 235.749 0.190314 235.81C0.250881 235.87 0.322819 235.918 0.402 235.951C0.481182 235.984 0.566046 236 0.651696 236H392.348C392.521 236 392.687 235.931 392.809 235.809C392.931 235.687 393 235.521 393 235.348C393 235.175 392.931 235.009 392.809 234.887C392.687 234.765 392.521 234.696 392.348 234.696H0.651696C0.566046 234.696 0.481189 234.712 0.402009 234.745C0.322828 234.778 0.250889 234.826 0.190323 234.886C0.129757 234.947 0.0817631 235.019 0.0491015 235.098C0.01644 235.177 -0.000249434 235.262 2.88438e-06 235.348Z" fill="#CCCCCC"/>
<path d="M247.364 228.957H242.067L239.547 208.511L247.366 208.511L247.364 228.957Z" fill="#FFB6B6"/>
<path d="M247.551 234.486L231.26 234.486V234.279C231.26 232.597 231.928 230.983 233.117 229.793C234.306 228.604 235.919 227.935 237.601 227.935L240.577 225.676L246.129 227.936L247.552 227.936L247.551 234.486Z" fill="#2F2E41"/>
<path d="M224.332 203.618L219.439 205.648L209.282 187.728L216.505 184.732L224.332 203.618Z" fill="#FFB6B6"/>
<path d="M226.622 208.654L211.573 214.898L211.494 214.707C210.85 213.153 210.849 211.406 211.492 209.851C212.135 208.297 213.369 207.061 214.922 206.416L216.806 203.189L222.8 203.148L224.114 202.603L226.622 208.654Z" fill="#2F2E41"/>
<path d="M253.422 112.652L215.825 116.582L210.795 133.529L193.378 161.534C193.378 161.534 205.531 182 204.39 181.777C203.249 181.554 205.53 187.133 207.128 186.809C208.725 186.485 210.387 190.123 209.282 190.769C208.178 191.416 212.609 196.885 212.609 196.885L219.381 190.803C220.822 179.931 219.081 170.256 212.881 162.257L232.284 141.298L235.963 139.771L238.884 217.542L249.686 217.72C252.667 202.378 254.164 188.571 251.835 178.72C251.835 178.72 252.169 149.129 253.447 149.453C254.724 149.777 253.641 145.922 253.641 145.922C253.641 145.922 252.522 142.639 253.897 141.276C255.272 139.914 254.413 131.904 254.413 131.904C256.685 124.323 256.001 118.063 253.422 112.652Z" fill="#2F2E41"/>
<path d="M224.514 50.1092L234.908 47.4144L239.759 40.7192L251.282 42.1364L253.734 51.2687L261.937 56.0327C261.937 56.0327 257.404 104.012 258.482 106.647C259.56 109.281 263.427 109.064 260.125 112.46C256.822 115.856 256.385 114.488 257.151 118.186C257.918 121.883 263.504 125.796 257.151 125.757C250.799 125.718 212.466 125.17 213.562 120.787C214.657 116.404 214.64 117.517 216.291 114.769C217.942 112.021 219.054 113.557 218.498 109.501C217.942 105.446 218.49 102.707 218.49 100.515C218.49 98.3236 220.325 78.4085 220.325 78.4085L224.514 50.1092Z" fill="#E6E6E6"/>
<path d="M245.492 39.4816C252.235 39.4816 257.702 34.0121 257.702 27.265C257.702 20.5179 252.235 15.0483 245.492 15.0483C238.748 15.0483 233.281 20.5179 233.281 27.265C233.281 34.0121 238.748 39.4816 245.492 39.4816Z" fill="#FFB6B6"/>
<path d="M232.697 19.8715C233.769 20.7383 233.524 24.9541 234.719 24.267C235.913 23.5798 236.162 22.3493 237.538 22.3364C238.659 22.3984 239.717 22.8773 240.504 23.6794C240.65 23.8118 240.79 23.9506 240.925 24.0878C241.049 24.0444 241.171 24.0051 241.299 23.9728C242.264 23.7372 243.282 23.8806 244.145 24.3737C243.349 24.4306 242.59 24.7365 241.977 25.2481C242.24 25.5425 242.506 25.8386 242.787 26.1122C245.125 28.4051 249.92 25.9633 253.144 25.4124C250.459 28.3458 250.988 29.9833 251.656 33.9042L251.659 34.1184C251.796 33.2142 254.69 33.2592 254.213 34.459C253.614 35.6442 252.864 36.7471 251.982 37.7401C255.926 35.0066 259.11 31.2386 259.813 26.687C259.958 25.73 260.24 24.7536 259.967 23.8205C259.852 23.3488 259.583 22.9286 259.203 22.6258C258.823 22.323 258.354 22.1545 257.869 22.1467C258.308 20.7505 258.361 19.2613 258.022 17.8374C257.683 16.4135 256.965 15.1081 255.943 14.06C254.922 13.012 253.636 12.2604 252.222 11.8852C250.808 11.51 249.319 11.5253 247.912 11.9293C246.63 12.3854 245.379 12.9257 244.167 13.5467C242.944 14.17 241.56 14.4046 240.2 14.2189C239.353 14.0438 238.495 13.605 237.665 13.8534C236.703 14.1421 236.289 15.1588 235.904 16.1402C236.627 16.4047 237.256 16.8791 237.709 17.5028C236.961 17.2265 236.144 17.1933 235.376 17.408C235.362 17.4105 235.348 17.4142 235.335 17.4193C234.464 18.9811 234.413 19.364 232.697 19.8715Z" fill="#2F2E41"/>
<path d="M236.724 44.1418C230.47 43.6381 224.759 48.4235 222.156 54.1351C219.552 59.8467 219.381 66.326 219.255 72.6023L218.862 92.1119C218.804 94.9989 218.746 97.8864 218.602 100.77C218.528 103.577 218.175 106.369 217.549 109.105C216.274 114.126 213.469 118.601 210.705 122.982C217.781 125.122 224.978 126.842 232.257 128.132C235.892 116.368 239.569 104.266 238.675 91.985C238.203 85.4864 236.456 79.1416 235.792 72.6598C234.851 63.4797 236.098 54.232 237.342 45.0882" fill="#3F3D56"/>
<path d="M251.905 45.2391C258.099 46.2357 262.511 52.241 263.684 58.4078C264.858 64.5746 263.485 70.9092 262.118 77.0359C260.702 83.3842 259.286 89.7325 257.87 96.0808C257.241 98.899 256.612 101.718 256.067 104.553C255.538 107.308 257.755 110.841 257.78 113.646C257.827 118.827 256.821 123.093 258.466 128.006C251.085 128.404 243.686 128.364 236.309 127.888C235.569 115.597 234.87 102.967 238.653 91.25C240.655 85.0496 243.858 79.3014 246.041 73.1628C249.134 64.4687 250.118 55.1894 251.08 46.0115" fill="#3F3D56"/>
<path d="M256.034 133.806C255.574 133.004 255.445 132.054 255.675 131.158C255.904 130.262 256.474 129.491 257.263 129.009C257.425 128.914 257.594 128.832 257.769 128.765L256.98 101.854L265.537 99.6753L262.274 131.027C262.497 131.776 262.466 132.578 262.186 133.308C261.905 134.038 261.391 134.655 260.724 135.062C260.342 135.29 259.919 135.44 259.479 135.504C259.039 135.569 258.59 135.546 258.159 135.436C257.728 135.327 257.323 135.134 256.966 134.869C256.609 134.603 256.309 134.269 256.081 133.887C256.065 133.86 256.049 133.834 256.034 133.806Z" fill="#FFB6B6"/>
<path d="M255.41 55.9897C255.41 55.9897 261.383 50.9359 266.409 61.0409C271.435 71.1459 268.626 94.2309 267.918 95.4629C267.211 96.695 266.779 94.9787 267.167 98.2628C267.482 100.934 265.608 100.6 266.28 101.17C268.053 102.673 263.09 102.844 265.639 104.168C268.187 105.492 256.779 105.74 256.779 105.74C256.779 105.74 255.399 104.754 256.358 101.036C256.896 98.9481 258.244 98.1841 256.806 97.2178C255.369 96.2515 258.291 93.2641 258.293 92.6086C258.295 91.9531 253.737 77.6165 253.737 77.6165L255.41 55.9897Z" fill="#3F3D56"/>
<path d="M205.983 180.475C204.42 180.475 202.88 180.111 201.482 179.412C200.085 178.712 198.869 177.697 197.932 176.446L173.249 143.517C172.455 142.459 171.877 141.255 171.549 139.974C171.22 138.693 171.147 137.359 171.334 136.05C171.521 134.741 171.964 133.481 172.637 132.342C173.31 131.204 174.201 130.21 175.259 129.416C176.317 128.623 177.52 128.045 178.801 127.717C180.082 127.389 181.415 127.317 182.723 127.504C184.032 127.692 185.291 128.135 186.428 128.81C187.566 129.484 188.559 130.376 189.352 131.434L205.5 152.976L246.977 90.7299C247.71 89.6296 248.652 88.6845 249.751 87.9487C250.849 87.2129 252.081 86.7007 253.377 86.4413C254.673 86.182 256.007 86.1806 257.304 86.4372C258.601 86.6939 259.834 87.2035 260.934 87.937C262.033 88.6705 262.978 89.6136 263.713 90.7123C264.449 91.8111 264.961 93.044 265.22 94.3407C265.479 95.6374 265.481 96.9725 265.224 98.2698C264.968 99.567 264.458 100.801 263.725 101.901L214.358 175.991C213.465 177.33 212.264 178.437 210.855 179.216C209.447 179.996 207.872 180.426 206.263 180.472C206.17 180.473 206.076 180.475 205.983 180.475Z" fill="#6C63FF"/>
<path d="M224.799 129.132C225.302 128.357 225.484 127.415 225.304 126.508C225.124 125.601 224.598 124.799 223.837 124.274C223.681 124.17 223.516 124.079 223.345 124.002L225.62 97.1767L217.196 94.5277L218.722 126.012C218.458 126.747 218.445 127.55 218.684 128.294C218.924 129.039 219.403 129.683 220.047 130.126C220.416 130.375 220.83 130.548 221.265 130.637C221.701 130.725 222.15 130.727 222.587 130.642C223.023 130.557 223.439 130.387 223.81 130.141C224.18 129.895 224.499 129.579 224.748 129.21C224.765 129.184 224.782 129.158 224.799 129.132Z" fill="#FFB6B6"/>
<path d="M229.728 51.5241C229.728 51.5241 224.044 46.1478 218.467 55.9594C212.89 65.771 214.42 88.976 215.058 90.2453C215.696 91.5146 216.222 89.8248 215.654 93.0825C215.192 95.732 217.081 95.502 216.379 96.0339C214.526 97.4366 219.472 97.8819 216.854 99.0632C214.236 100.245 225.613 101.123 225.613 101.123C225.613 101.123 227.045 100.215 226.293 96.4495C225.871 94.3346 224.568 93.4974 226.056 92.612C227.545 91.7266 224.792 88.5822 224.827 87.9276C224.861 87.273 230.204 73.2104 230.204 73.2104L229.728 51.5241Z" fill="#3F3D56"/>
</g>
<defs>
<clipPath id="clip0_255_2350">
<rect width="393" height="236" fill="white"/>
</clipPath>
</defs>
</svg>
