<svg width="20" height="12" viewBox="0 0 20 12" fill="none" xmlns="http://www.w3.org/2000/svg">
<path d="M19.375 5.4H18.75V3C18.75 2.68174 18.6183 2.37652 18.3839 2.15147C18.1495 1.92643 17.8315 1.8 17.5 1.8H16.25V1.2C16.25 0.88174 16.1183 0.576515 15.8839 0.351472C15.6495 0.126428 15.3315 0 15 0H13.125C12.7935 0 12.4755 0.126428 12.2411 0.351472C12.0067 0.576515 11.875 0.88174 11.875 1.2V5.4H8.125V1.2C8.125 0.88174 7.9933 0.576515 7.75888 0.351472C7.52446 0.126428 7.20652 0 6.875 0H5C4.66848 0 4.35054 0.126428 4.11612 0.351472C3.8817 0.576515 3.75 0.88174 3.75 1.2V1.8H2.5C2.16848 1.8 1.85054 1.92643 1.61612 2.15147C1.3817 2.37652 1.25 2.68174 1.25 3V5.4H0.625C0.45924 5.4 0.300269 5.46321 0.183058 5.57574C0.065848 5.68826 0 5.84087 0 6C0 6.15913 0.065848 6.31174 0.183058 6.42426C0.300269 6.53679 0.45924 6.6 0.625 6.6H1.25V9C1.25 9.31826 1.3817 9.62348 1.61612 9.84853C1.85054 10.0736 2.16848 10.2 2.5 10.2H3.75V10.8C3.75 11.1183 3.8817 11.4235 4.11612 11.6485C4.35054 11.8736 4.66848 12 5 12H6.875C7.20652 12 7.52446 11.8736 7.75888 11.6485C7.9933 11.4235 8.125 11.1183 8.125 10.8V6.6H11.875V10.8C11.875 11.1183 12.0067 11.4235 12.2411 11.6485C12.4755 11.8736 12.7935 12 13.125 12H15C15.3315 12 15.6495 11.8736 15.8839 11.6485C16.1183 11.4235 16.25 11.1183 16.25 10.8V10.2H17.5C17.8315 10.2 18.1495 10.0736 18.3839 9.84853C18.6183 9.62348 18.75 9.31826 18.75 9V6.6H19.375C19.5408 6.6 19.6997 6.53679 19.8169 6.42426C19.9342 6.31174 20 6.15913 20 6C20 5.84087 19.9342 5.68826 19.8169 5.57574C19.6997 5.46321 19.5408 5.4 19.375 5.4ZM2.5 9V3H3.75V9H2.5ZM6.875 10.8H5V1.2H6.875V10.8ZM15 10.8H13.125V1.2H15V9.5865C15 9.591 15 9.5955 15 9.6C15 9.6045 15 9.609 15 9.6135V10.8ZM17.5 9H16.25V3H17.5V9Z" fill="#E0E1DD"/>
</svg>
