<svg width="227" height="220" viewBox="0 0 227 220" fill="none" xmlns="http://www.w3.org/2000/svg">
<g clip-path="url(#clip0_254_2309)">
<path d="M120.425 166.982C117.049 167.498 114.579 169.652 114.909 171.794C115.239 173.937 118.242 175.254 121.619 174.738C122.971 174.55 124.258 174.042 125.372 173.256L139.648 170.89L138.695 165.264L124.452 167.274C123.152 166.857 121.771 166.757 120.425 166.982Z" fill="#FFB6B6"/>
<path d="M181.941 149.444L176.405 161.155L148.578 170.496L125.488 171.724L124.909 166.194L149.934 160.977L175.613 148.877L181.941 149.444Z" fill="#E6E6E6"/>
<path d="M118.806 124.942L118.047 124.959L119.498 190.688L120.257 190.672L118.806 124.942Z" fill="#3F3D56"/>
<path d="M118.823 154.045C118.754 153.812 117.181 148.269 120.587 142.82L121.231 143.22C118.01 148.372 119.535 153.778 119.551 153.833L118.823 154.045Z" fill="#3F3D56"/>
<path d="M120.854 143.24C120.854 143.24 119.818 136.183 129.358 134.246C131.346 133.842 133.214 133.566 134.927 133.383C136.949 133.166 137.738 135.925 135.911 136.817C133.266 138.107 130.778 139.734 129.481 141.66C125.904 146.972 120.854 143.24 120.854 143.24Z" fill="#6C63FF"/>
<path d="M119.804 174.455L119.076 174.243C119.091 174.188 120.616 168.782 117.395 163.63L118.039 163.23C121.446 168.679 119.873 174.222 119.804 174.455Z" fill="#3F3D56"/>
<path d="M117.773 163.65C117.773 163.65 118.809 156.593 109.268 154.656C107.281 154.252 105.412 153.976 103.699 153.792C101.677 153.576 100.889 156.335 102.715 157.226C105.36 158.517 107.849 160.144 109.145 162.07C112.722 167.382 117.773 163.65 117.773 163.65Z" fill="#6C63FF"/>
<path d="M131.052 115.816C132.972 115.311 134.768 114.431 134.708 113.561C134.637 112.527 131.971 111.835 129.671 111.729C131.406 110.376 133 108.505 132.513 107.659C132.064 106.881 129.98 107.183 128.056 107.868C129.194 106.245 129.995 104.417 129.385 103.791C128.626 103.011 125.932 104.357 124.093 105.844C124.451 103.527 124.27 100.603 123.228 100.338C122.356 100.117 121.12 101.818 120.273 103.671C119.898 101.726 119.14 99.88 118.266 99.88C117.019 99.88 116.009 103.626 116.009 106.067C116.009 106.205 116.013 106.335 116.019 106.459C115.894 106.315 115.751 106.164 115.587 106.005C113.831 104.305 110.432 102.417 109.564 103.309C108.954 103.934 109.754 105.763 110.893 107.386C108.969 106.701 106.884 106.399 106.436 107.177C105.834 108.222 108.408 110.831 110.5 112.096C110.374 112.081 110.242 112.069 110.102 112.059C107.659 111.893 103.842 112.643 103.757 113.883C103.698 114.753 105.493 115.633 107.414 116.137C105.502 116.854 103.716 117.967 103.878 118.85C104.075 119.921 107.076 120.296 109.436 120.076C107.673 121.763 105.761 124.784 106.559 125.67C107.143 126.318 109.027 125.647 110.729 124.625C109.912 126.492 109.469 128.545 110.217 129.044C111.205 129.703 113.915 127.409 115.344 125.435C115.199 127.85 115.778 131.168 116.928 131.298C117.797 131.397 118.76 129.649 119.354 127.759C119.984 129.696 121.019 131.526 121.91 131.405C123.069 131.247 123.574 127.846 123.358 125.43C124.832 127.322 127.313 129.347 128.249 128.722C128.996 128.224 128.553 126.17 127.737 124.303C129.438 125.325 131.322 125.997 131.906 125.348C132.704 124.463 130.793 121.441 129.03 119.755C131.389 119.974 134.391 119.599 134.588 118.528C134.75 117.646 132.963 116.533 131.052 115.816ZM120.711 122.647C120.218 122.714 119.766 122.81 119.423 123.055C119.058 122.694 118.526 122.584 117.934 122.517C117.271 122.441 116.668 122.434 116.209 122.815C116.04 122.349 115.627 122.018 115.145 121.697C114.731 121.421 114.33 121.194 113.91 121.15C113.877 120.639 113.552 120.205 113.153 119.763C112.899 119.481 112.645 119.229 112.363 119.06C112.77 118.566 112.723 117.942 112.597 117.257C112.508 116.768 112.391 116.323 112.13 115.992C112.475 115.613 112.561 115.077 112.601 114.484C112.646 113.837 112.627 113.25 112.252 112.813C113.221 112.936 113.688 112.334 114.123 111.58C114.371 111.149 114.571 110.734 114.586 110.314C115.095 110.246 115.508 109.893 115.923 109.467C116.278 109.102 116.579 108.742 116.693 108.327C117.099 108.667 117.654 108.719 118.266 108.719C118.862 108.719 119.403 108.67 119.807 108.353C120.12 108.635 120.557 108.781 121.04 108.904C121.501 109.021 121.936 109.099 122.332 109.02C122.476 109.349 122.733 109.648 123.026 109.949C123.441 110.375 123.854 110.728 124.363 110.796C124.378 111.216 124.578 111.631 124.826 112.062C125.118 112.569 125.425 113.008 125.889 113.203C125.835 113.498 125.841 113.822 125.864 114.163C125.905 114.756 125.99 115.291 126.335 115.671C126.074 116.002 125.958 116.447 125.868 116.936C125.742 117.621 125.695 118.245 126.102 118.739C125.82 118.907 125.566 119.159 125.312 119.441C124.914 119.883 124.588 120.318 124.555 120.829C124.136 120.873 123.734 121.1 123.32 121.376C122.754 121.753 122.283 122.144 122.193 122.751C121.768 122.546 121.26 122.572 120.711 122.647Z" fill="#6C63FF"/>
<path d="M119.394 123.826C123.845 123.826 127.453 120.228 127.453 115.79C127.453 111.352 123.845 107.755 119.394 107.755C114.943 107.755 111.335 111.352 111.335 115.79C111.335 120.228 114.943 123.826 119.394 123.826Z" fill="#3F3D56"/>
<path d="M22.2007 213.228C22.2007 213.477 22.4018 213.678 22.6522 213.678H220.829C221.079 213.678 221.281 213.477 221.281 213.228C221.281 212.978 221.079 212.777 220.829 212.777H22.6522C22.4018 212.777 22.2007 212.978 22.2007 213.228Z" fill="#3F3D56"/>
<path d="M130.617 193.913L125.648 206.447L119.216 202.075L123.017 188.958L130.617 193.913Z" fill="#FFB6B6"/>
<path d="M109.862 189.25L96.707 201.783L101.969 207.321L115.416 196.828L109.862 189.25Z" fill="#FFB6B6"/>
<path d="M184.406 148.442L184.26 147.422L180.898 140.864L169.79 143.779L171.836 152.815L184.406 148.442Z" fill="#FFB6B6"/>
<path d="M179.729 192.164L180.071 196.542C180.071 196.542 181.483 214.9 170.082 216.357C158.681 217.815 153.711 219.272 146.988 207.904L136.464 189.25L130.317 196.542L122.14 190.124C122.14 190.124 127.986 167.389 132.664 166.514C133.248 166.405 133.833 166.35 134.409 166.338C138.281 166.258 141.931 168.146 144.248 171.241L157.512 188.958L162.335 186.772L179.729 192.164Z" fill="#2F2E41"/>
<path d="M116.585 205.864L119.216 200.909L126.817 206.155C126.817 206.155 128.571 212.568 125.94 213.442C123.309 214.317 116.001 213.151 116.001 213.151C116.001 213.151 102.554 216.066 102.261 213.442C101.969 210.819 108.4 210.236 108.4 210.236L116.585 205.864Z" fill="#2F2E41"/>
<path d="M145.234 202.366L124.917 189.602L114.539 198.868L107.523 190.707C107.523 190.707 120.386 171.761 124.186 170.886C127.986 170.012 134.125 169.429 134.125 169.429L152.835 186.626L145.234 202.366Z" fill="#2F2E41"/>
<path d="M96.4147 200.617L103.138 207.904L102.252 208.66C102.252 208.66 100.507 216.235 96.4147 213.673C92.322 211.11 92.0297 210.527 92.0297 210.527C92.0297 210.527 80.3365 213.151 79.1671 208.487C77.9978 203.823 81.2135 204.698 81.2135 204.698L84.1333 206.447L96.4147 200.617Z" fill="#2F2E41"/>
<path d="M173.298 146.985C178.464 146.985 182.652 142.809 182.652 137.658C182.652 132.506 178.464 128.33 173.298 128.33C168.131 128.33 163.943 132.506 163.943 137.658C163.943 142.809 168.131 146.985 173.298 146.985Z" fill="#FFB6B6"/>
<path d="M171.105 150.92L184.552 146.839C184.552 146.839 189.814 159.081 188.937 164.619C188.06 170.158 180.071 196.542 180.071 196.542L162.335 186.772C162.335 186.772 162.043 180.942 161.166 178.319C160.289 175.696 157.512 167.68 163.651 160.976C169.79 154.272 171.105 150.92 171.105 150.92Z" fill="#E6E6E6"/>
<path d="M39.7817 59.0117L39.0232 59.0283L42.4381 213.767L43.1966 213.75L39.7817 59.0117Z" fill="#3F3D56"/>
<path d="M40.8271 127.37C40.7882 127.237 37.026 113.992 44.9247 101.359L45.5688 101.759C37.8479 114.108 41.5172 127.028 41.5552 127.157L40.8271 127.37Z" fill="#3F3D56"/>
<path d="M45.1154 102.078C45.1154 102.078 42.6774 85.4624 65.1372 80.9023C69.8163 79.9523 74.2152 79.3031 78.2475 78.8705C83.0073 78.3598 84.8639 84.8564 80.5641 86.9548C74.337 89.9937 68.4792 93.8225 65.426 98.3567C57.0054 110.862 45.1154 102.078 45.1154 102.078Z" fill="#6C63FF"/>
<path d="M42.1517 175.418L41.4236 175.205C41.4614 175.076 45.1237 162.145 37.41 149.807L38.054 149.407C45.9528 162.041 42.1906 175.286 42.1517 175.418Z" fill="#3F3D56"/>
<path d="M37.8633 150.126C37.8633 150.126 40.3013 133.511 17.8415 128.951C13.1624 128.001 8.76348 127.351 4.73116 126.919C-0.0285866 126.408 -1.88523 132.905 2.4146 135.003C8.64172 138.042 14.4995 141.871 17.5526 146.405C25.9732 158.91 37.8633 150.126 37.8633 150.126Z" fill="#6C63FF"/>
<path d="M69.1232 37.5159C73.6441 36.3274 77.8716 34.2565 77.7314 32.2077C77.5649 29.774 71.2884 28.1433 65.8737 27.8952C69.9578 24.7093 73.7104 20.3052 72.5629 18.3134C71.5078 16.4823 66.5999 17.1916 62.0716 18.8044C64.7514 14.9843 66.6354 10.6798 65.2006 9.20673C63.4133 7.37173 57.07 10.539 52.7409 14.0399C53.5837 8.58577 53.1576 1.70123 50.7042 1.07836C48.6517 0.557274 45.7427 4.56208 43.7483 8.92464C42.8669 4.34647 41.0824 0 39.023 0C36.0892 0 33.7108 8.81975 33.7108 14.5658C33.7108 14.8906 33.7195 15.1964 33.7343 15.4885C33.4399 15.1481 33.1024 14.7925 32.7175 14.4198C28.5834 10.4166 20.5809 5.97322 18.5369 8.07172C17.1022 9.54483 18.9861 13.8493 21.6659 17.6694C17.1377 16.0566 12.2297 15.3473 11.1747 17.1784C9.75705 19.6389 15.8166 25.781 20.7421 28.7596C20.446 28.724 20.1349 28.6941 19.8039 28.6716C14.0544 28.2804 5.0675 30.0459 4.86777 32.9644C4.72757 35.0131 8.95514 37.0841 13.476 38.2726C8.97506 39.9596 4.7699 42.5808 5.15159 44.658C5.61482 47.1791 12.6805 48.0616 18.236 47.5451C14.0856 51.5155 9.58523 58.6283 11.4634 60.7128C12.8397 62.2404 17.275 60.6593 21.2797 58.2536C19.3577 62.6484 18.3139 67.4824 20.0743 68.6566C22.4008 70.2083 28.7813 64.8076 32.1454 60.1605C31.8026 65.8458 33.1669 73.6561 35.8739 73.9643C37.9201 74.1973 40.1876 70.0807 41.5843 65.6319C43.0694 70.1919 45.5039 74.4999 47.6024 74.2144C50.3312 73.8431 51.5208 65.8373 51.0118 60.148C54.4819 64.6039 60.3218 69.3694 62.5249 67.8999C64.2854 66.7257 63.2415 61.8917 61.3195 57.4969C65.3242 59.9026 69.7595 61.4837 71.1358 59.9562C73.014 57.8716 68.5136 50.7589 64.3632 46.7884C69.9188 47.305 76.9844 46.4224 77.4476 43.9013C77.8293 41.8241 73.6241 39.2029 69.1232 37.5159ZM44.7808 53.5971C43.6187 53.7552 42.5561 53.981 41.7481 54.5576C40.8896 53.7079 39.6358 53.4491 38.2417 53.2903C36.6807 53.1126 35.2622 53.0954 34.1805 53.9936C33.7846 52.8966 32.8114 52.1174 31.6776 51.3611C30.7028 50.7109 29.7573 50.1772 28.7691 50.0743C28.6918 48.8706 27.9257 47.8477 26.988 46.8069C26.3901 46.1433 25.7919 45.55 25.1281 45.1531C26.0858 43.9905 25.9754 42.521 25.679 40.9082C25.4677 39.7579 25.193 38.7098 24.5786 37.9312C25.3908 37.0374 25.5929 35.7767 25.6885 34.3809C25.7927 32.8568 25.7494 31.475 24.8671 30.446C27.1472 30.7352 28.2475 29.3189 29.2703 27.5438C29.8545 26.5298 30.3242 25.553 30.3599 24.5628C31.559 24.4041 32.5304 23.5723 33.5079 22.5686C34.343 21.7112 35.0533 20.8623 35.3202 19.8852C36.277 20.687 37.5826 20.8083 39.023 20.8083C40.4261 20.8083 41.7013 20.6931 42.6509 19.9459C43.3882 20.6102 44.4182 20.9547 45.5548 21.2433C46.6398 21.5188 47.6639 21.703 48.5951 21.5176C48.935 22.2918 49.5393 22.9949 50.2296 23.7036C51.2071 24.7073 52.1785 25.5391 53.3776 25.6978C53.4133 26.688 53.883 27.6648 54.4672 28.6788C55.155 29.8724 55.8772 30.9044 56.9697 31.3649C56.8422 32.0582 56.8558 32.8214 56.9107 33.6243C57.0063 35.0201 57.2084 36.2808 58.0206 37.1746C57.4061 37.9532 57.1315 39.0013 56.9202 40.1516C56.6238 41.7643 56.5134 43.2338 57.4711 44.3965C56.8073 44.7933 56.2091 45.3866 55.6112 46.0503C54.6735 47.091 53.9074 48.114 53.8301 49.3176C52.8419 49.4205 51.8964 49.9543 50.9216 50.6045C49.5901 51.4925 48.481 52.4131 48.268 53.8422C47.2689 53.3589 46.0728 53.4213 44.7808 53.5971Z" fill="#6C63FF"/>
<path d="M41.6791 56.3717C52.157 56.3717 60.651 47.9024 60.651 37.455C60.651 27.0076 52.157 18.5383 41.6791 18.5383C31.2012 18.5383 22.7072 27.0076 22.7072 37.455C22.7072 47.9024 31.2012 56.3717 41.6791 56.3717Z" fill="#3F3D56"/>
<path d="M216.967 176.399L216.209 176.415L217.025 213.388L217.783 213.372L216.967 176.399Z" fill="#3F3D56"/>
<path d="M216.651 192.82C216.612 192.685 215.707 189.498 217.662 186.371L218.306 186.771C216.536 189.602 217.371 192.578 217.38 192.607L216.651 192.82Z" fill="#3F3D56"/>
<path d="M217.953 186.695C217.953 186.695 217.37 182.725 222.737 181.636C223.855 181.409 224.906 181.253 225.869 181.15C227.007 181.028 227.45 182.58 226.423 183.082C224.935 183.808 223.535 184.723 222.806 185.806C220.794 188.794 217.953 186.695 217.953 186.695Z" fill="#6C63FF"/>
<path d="M217.522 204.3L216.794 204.087C216.802 204.058 217.637 201.083 215.867 198.252L216.511 197.852C218.466 200.979 217.562 204.166 217.522 204.3Z" fill="#3F3D56"/>
<path d="M216.22 198.176C216.22 198.176 216.803 194.206 211.436 193.116C210.318 192.889 209.267 192.734 208.304 192.631C207.166 192.509 206.723 194.061 207.75 194.562C209.238 195.288 210.638 196.203 211.367 197.287C213.379 200.275 216.22 198.176 216.22 198.176Z" fill="#6C63FF"/>
<path d="M223.689 171.269C224.77 170.985 225.78 170.49 225.746 170.001C225.706 169.419 224.207 169.029 222.913 168.97C223.889 168.209 224.785 167.157 224.511 166.681C224.259 166.243 223.087 166.413 222.005 166.798C222.645 165.885 223.095 164.857 222.752 164.505C222.325 164.066 220.809 164.823 219.775 165.66C219.976 164.356 219.875 162.711 219.288 162.563C218.798 162.438 218.103 163.395 217.626 164.437C217.416 163.343 216.989 162.305 216.497 162.305C215.796 162.305 215.228 164.412 215.228 165.785C215.228 165.863 215.23 165.936 215.234 166.006C215.163 165.924 215.083 165.839 214.991 165.75C214.003 164.794 212.091 163.732 211.602 164.234C211.26 164.586 211.71 165.614 212.35 166.527C211.268 166.141 210.095 165.972 209.843 166.41C209.505 166.997 210.952 168.465 212.129 169.177C212.059 169.168 211.984 169.161 211.905 169.156C210.531 169.062 208.384 169.484 208.336 170.181C208.303 170.671 209.313 171.166 210.393 171.45C209.318 171.853 208.313 172.479 208.404 172.975C208.515 173.578 210.203 173.789 211.531 173.665C210.539 174.614 209.464 176.313 209.912 176.812C210.241 177.177 211.301 176.799 212.258 176.224C211.799 177.274 211.549 178.429 211.97 178.71C212.526 179.08 214.05 177.79 214.854 176.68C214.772 178.038 215.098 179.904 215.745 179.978C216.234 180.033 216.776 179.05 217.109 177.987C217.464 179.076 218.046 180.106 218.547 180.038C219.199 179.949 219.484 178.036 219.362 176.677C220.191 177.741 221.586 178.88 222.113 178.529C222.533 178.248 222.284 177.093 221.825 176.043C222.782 176.618 223.841 176.996 224.17 176.631C224.619 176.133 223.544 174.433 222.552 173.484C223.88 173.608 225.568 173.397 225.678 172.795C225.77 172.298 224.765 171.672 223.689 171.269ZM217.873 175.111C217.595 175.149 217.342 175.203 217.148 175.341C216.943 175.138 216.644 175.076 216.311 175.038C215.938 174.996 215.599 174.991 215.34 175.206C215.246 174.944 215.013 174.758 214.742 174.577C214.509 174.422 214.283 174.294 214.047 174.27C214.029 173.982 213.846 173.738 213.622 173.489C213.479 173.33 213.336 173.189 213.177 173.094C213.406 172.816 213.38 172.465 213.309 172.079C213.258 171.805 213.193 171.554 213.046 171.368C213.24 171.155 213.288 170.853 213.311 170.52C213.336 170.156 213.326 169.825 213.115 169.58C213.66 169.649 213.923 169.31 214.167 168.886C214.307 168.644 214.419 168.411 214.427 168.174C214.714 168.136 214.946 167.937 215.18 167.697C215.379 167.493 215.549 167.29 215.613 167.056C215.841 167.248 216.153 167.277 216.497 167.277C216.833 167.277 217.137 167.249 217.364 167.071C217.54 167.229 217.786 167.312 218.058 167.381C218.317 167.447 218.562 167.491 218.784 167.446C218.866 167.631 219.01 167.799 219.175 167.969C219.409 168.208 219.641 168.407 219.927 168.445C219.936 168.682 220.048 168.915 220.188 169.157C220.352 169.443 220.524 169.689 220.786 169.799C220.755 169.965 220.758 170.147 220.771 170.339C220.794 170.673 220.843 170.974 221.037 171.187C220.89 171.373 220.824 171.624 220.774 171.899C220.703 172.284 220.676 172.635 220.905 172.913C220.747 173.008 220.604 173.15 220.461 173.308C220.237 173.557 220.054 173.801 220.035 174.089C219.799 174.113 219.573 174.241 219.34 174.396C219.022 174.608 218.757 174.828 218.706 175.17C218.468 175.054 218.182 175.069 217.873 175.111Z" fill="#6C63FF"/>
<path d="M217.132 175.774C219.636 175.774 221.665 173.751 221.665 171.254C221.665 168.758 219.636 166.734 217.132 166.734C214.628 166.734 212.599 168.758 212.599 171.254C212.599 173.751 214.628 175.774 217.132 175.774Z" fill="#3F3D56"/>
<path d="M141.509 212.125C139.32 214.74 138.899 217.984 140.568 219.373C142.237 220.761 145.363 219.767 147.552 217.152C148.441 216.119 149.068 214.889 149.383 213.565L158.515 202.372L154.066 198.782L144.722 209.687C143.471 210.232 142.369 211.068 141.509 212.125Z" fill="#FFB6B6"/>
<path d="M181.42 156.801L184.598 169.354L169.042 194.183L153.161 210.097L148.014 205.839L164.03 185.969L176.17 160.368L181.42 156.801Z" fill="#E6E6E6"/>
<path d="M164.674 136.055C167.073 136.049 167.209 136.065 167.597 136.055C170.573 135.976 171.351 134.809 172.859 134.889C175.551 135.031 171.998 148.488 170.52 154.709C169.071 160.811 173.969 166.278 174.321 166.66C179.292 172.05 188.024 173.036 189.522 170.741C190.735 168.882 186.437 166.057 187.476 161.996C188.491 158.026 193.181 158.449 194.492 154.709C195.864 150.793 191.251 148.817 188.353 139.261C186.688 133.772 186.983 132.75 185.429 129.35C181.278 120.264 160.928 124.133 163.212 132.557C163.654 134.186 162.478 136.06 164.674 136.055Z" fill="#2F2E41"/>
</g>
<defs>
<clipPath id="clip0_254_2309">
<rect width="227" height="220" fill="white"/>
</clipPath>
</defs>
</svg>
