<svg width="353" height="169" viewBox="0 0 353 169" fill="none" xmlns="http://www.w3.org/2000/svg">
<path d="M304.463 89.2567C296.318 71.6326 280.378 56.5978 261.122 54.1473C256.031 53.4992 250.715 53.7593 245.991 55.7663C239.79 58.401 235.22 63.7191 230.601 68.6255C220.822 79.0093 209.879 88.2309 197.989 96.1077C192.12 99.9945 185.825 103.62 178.857 104.615C164.886 106.609 151.067 97.079 144.695 84.4838C140.715 76.6161 138.876 67.3785 135.658 59.1947C131.954 59.1874 127.538 59.1889 122.788 59.2107C109.66 59.2713 98.9737 59.465 98.9737 59.465C98.9737 59.465 111.676 42.6353 122.741 48.8706C126.277 50.8631 129.981 52.6412 133.384 54.1378C131.451 50.4174 129.012 47.07 125.656 44.3786C119.04 39.0714 110.079 37.5828 101.607 37.978C92.7094 38.3929 83.7333 40.7751 76.5048 45.978C63.6275 55.2465 58.31 71.5607 53.7584 86.7618L64.7595 92.2782C69.4782 88.1978 76.3788 84.1613 82.7389 87.7451C93.8021 93.9812 106.513 98.1223 106.513 98.1223C106.513 98.1223 95.9136 98.0264 82.7847 98.086C80.5795 98.0961 78.4463 98.1103 76.418 98.1263L198.558 159.371C238.843 159.939 269.218 157.76 307.499 159.371C309.496 159.455 313.986 148.988 313.999 146.233C314.106 126.818 312.608 106.881 304.463 89.2567ZM265.346 94.5391C252.217 94.5998 241.531 94.7934 241.531 94.7934C241.531 94.7934 254.233 77.9638 265.298 84.1991C276.363 90.4343 289.074 94.5744 289.074 94.5744C289.074 94.5744 278.475 94.4785 265.346 94.538L265.346 94.5391Z" fill="#F2F2F2"/>
<path d="M122.845 59.4653C122.845 59.4653 125.044 43.3368 128.709 47.7344C132.374 52.1319 128.709 58.7319 128.709 58.7319L125.776 62.3979L122.844 60.1984L122.845 59.4653Z" fill="#FFB9B9"/>
<path d="M114.049 64.597C114.049 64.597 121.379 56.5328 122.845 57.9985C124.311 59.4642 128.709 60.198 127.976 63.1306C127.242 66.0631 111.849 75.5953 111.849 75.5953L114.049 64.597Z" fill="#6C63FF"/>
<path opacity="0.1" d="M114.049 64.597C114.049 64.597 121.379 56.5328 122.845 57.9985C124.311 59.4642 128.709 60.198 127.976 63.1306C127.242 66.0631 111.849 75.5953 111.849 75.5953L114.049 64.597Z" fill="black"/>
<path d="M72.2681 63.864V69.7295C72.2681 69.7295 71.5352 82.9266 75.9332 82.1935C80.3312 81.4605 78.1322 70.4625 78.1322 70.4625L77.3993 63.864H72.2681Z" fill="#FFB9B9"/>
<path d="M74.467 106.388C74.467 106.388 67.8701 116.653 65.6711 117.386C63.4721 118.119 51.7439 124.717 50.2782 131.316L40.0161 144.513L45.147 151.111C45.147 151.111 68.6029 126.184 75.1999 123.985C81.7969 121.787 88.3938 110.788 88.3938 110.788L74.467 106.388Z" fill="#FFB9B9"/>
<path d="M126.51 89.5251C126.51 89.5251 140.436 91.7246 138.238 100.523C136.039 109.321 114.782 127.65 114.782 127.65L114.049 132.049L105.987 133.516L102.321 129.85L103.054 127.65C103.054 127.65 111.85 119.586 112.583 116.653C113.316 113.719 121.379 101.989 125.044 101.256L119.913 98.3235L126.51 89.5251Z" fill="#FFB9B9"/>
<path d="M42.2148 144.513C42.2148 144.513 45.1466 140.114 40.7487 140.847C36.3507 141.58 33.4188 142.314 33.4188 145.246C33.4188 148.179 37.0839 168.708 41.4812 167.241C45.8784 165.775 42.214 159.177 42.214 159.177C42.214 159.177 44.413 153.312 45.8791 152.579C47.3452 151.846 47.3452 148.18 45.8791 148.18C44.413 148.18 41.4819 145.98 42.2148 144.513Z" fill="#090814"/>
<path d="M104.52 128.383C104.52 128.383 104.52 124.717 101.588 128.383C98.6559 132.049 97.1898 134.982 100.122 137.181C103.053 139.381 113.316 144.513 113.316 144.513C113.316 144.513 124.31 146.712 122.844 141.58C122.844 141.58 115.515 137.914 115.515 134.982C115.515 132.049 115.515 126.918 113.316 128.383C111.117 129.849 104.52 130.584 104.52 128.383Z" fill="#090814"/>
<path d="M90.5928 73.3951C90.5928 73.3951 80.3308 74.8615 81.064 89.5236C81.064 89.5236 67.8701 102.721 71.5352 107.12C75.2003 111.519 83.2633 119.584 86.1952 117.384C89.1271 115.185 97.9227 98.3235 97.9227 98.3235C97.9227 98.3235 118.447 105.655 122.111 101.989C125.776 98.3239 129.441 89.5255 129.441 89.5255L111.117 79.9936L90.5928 73.3951Z" fill="#090814"/>
<path d="M119.18 31.6043C124.037 31.6043 127.976 27.6653 127.976 22.8063C127.976 17.9473 124.037 14.0082 119.18 14.0082C114.322 14.0082 110.384 17.9473 110.384 22.8063C110.384 27.6653 114.322 31.6043 119.18 31.6043Z" fill="#FFB9B9"/>
<path d="M113.982 23.8877C113.982 23.8877 108.851 31.952 107.385 32.6858C105.919 33.4195 117.647 40.75 117.647 40.75C117.647 40.75 117.647 31.2189 121.313 29.0191L113.982 23.8877Z" fill="#FFB9B9"/>
<path d="M111.85 31.6043C111.85 31.6043 100.122 27.9384 97.9226 33.8038C95.7236 39.6693 90.5928 50.6669 91.3256 57.9985C92.0585 65.3301 93.5246 63.864 91.3256 66.0628C89.1266 68.2616 87.6605 66.7958 88.3938 69.7288C89.127 72.6617 89.8599 72.6613 89.1267 74.1278C88.3934 75.5942 97.9226 80.7263 105.986 81.4594L114.048 82.1924C114.048 82.1924 114.048 68.9953 115.514 66.0639C116.98 63.1324 119.912 57.2658 119.912 55.0663V49.2466C119.912 45.3731 118.902 41.5667 116.98 38.2036C116.98 38.2036 112.583 31.6043 111.85 31.6043Z" fill="#6C63FF"/>
<path d="M103.054 34.5373C103.054 34.5373 75.9328 36.7368 73.0009 44.0684C70.0691 51.4 68.603 66.0635 71.5348 66.0635C74.4667 66.0635 78.1318 67.53 78.8647 66.0635C79.5975 64.597 82.5298 49.9349 83.2626 49.9349C83.9955 49.9349 105.986 47.7354 105.986 47.7354C105.986 47.7354 115.514 36.0034 103.054 34.5373Z" fill="#6C63FF"/>
<path d="M119.535 20.6249C119.535 20.6249 121.869 16.5677 124.787 20.0917C127.704 23.6156 132.45 17.1395 131.723 15.7577C130.997 14.3758 128.421 15.8198 124.012 14.3773C119.602 12.9348 111.108 9.99789 109.685 19.5799C108.262 29.1618 111.65 28.1574 111.65 28.1574C111.65 28.1574 113.203 19.6667 114.607 22.1056L116.01 24.5445L117.228 24.8442L119.535 20.6249Z" fill="#090814"/>
<path d="M255.884 38.4274C261.178 38.4274 265.47 34.1343 265.47 28.8385C265.47 23.5427 261.178 19.2496 255.884 19.2496C250.589 19.2496 246.297 23.5427 246.297 28.8385C246.297 34.1343 250.589 38.4274 255.884 38.4274Z" fill="#090814"/>
<path d="M251.131 35.6056C251.131 35.6056 251.708 45.9845 250.555 45.9845C249.402 45.9845 257.761 50.8856 257.761 50.8856L262.949 48.0024V44.5428C262.949 44.5428 256.034 43.6779 258.915 36.1821C261.796 28.6863 251.131 35.6056 251.131 35.6056Z" fill="#FFB9B9"/>
<path d="M226.921 149.486L226.056 158.135L228.938 159L231.244 156.694L232.109 149.486H226.921Z" fill="#FFB9B9"/>
<path d="M268.427 154.387L269.868 159.865L273.903 162.46L278.227 160.153L273.327 152.081L268.427 154.387Z" fill="#FFB9B9"/>
<path d="M255.175 39.7816C259.148 39.7816 262.369 36.5603 262.369 32.5866C262.369 28.6129 259.148 25.3916 255.175 25.3916C251.203 25.3916 247.982 28.6129 247.982 32.5866C247.982 36.5603 251.203 39.7816 255.175 39.7816Z" fill="#FFB9B9"/>
<path d="M248.827 62.9944L246.809 62.1294C246.809 62.1294 243.35 60.1112 243.062 56.0751C242.773 52.0389 245.944 46.8484 245.944 46.8484L250.556 45.407L255.975 49.818L256.033 56.9378L248.827 62.9944Z" fill="#FFB9B9"/>
<path d="M246.81 47.4259L245.656 46.8495C245.656 46.8495 239.892 46.561 239.315 53.4803C238.738 60.3996 236.721 71.9319 236.721 71.9319C236.721 71.9319 232.109 80.0045 232.398 88.6536L230.092 96.1494C230.092 96.1494 226.921 107.105 230.668 107.105C234.415 107.105 234.127 95.2845 234.127 95.2845C234.127 95.2845 241.045 78.5628 241.621 75.68C242.197 72.7972 247.098 59.2466 245.656 55.4986C244.215 51.7505 246.81 47.4259 246.81 47.4259Z" fill="#FFB9B9"/>
<path d="M251.131 65.5891V68.7603C251.131 68.7603 253.149 71.0666 252.284 72.5084C251.42 73.9501 250.555 76.8311 250.555 76.8311L254.592 83.1743L268.138 84.3276L270.832 66.2738L251.131 65.5891Z" fill="#FFB9B9"/>
<path d="M263.815 45.4077L266.121 44.2544C266.121 44.2544 271.021 40.7947 275.055 40.2182L287.449 31.8575L295.52 12.541C295.52 12.541 295.231 2.1621 297.537 3.31435C299.843 4.4666 299.555 13.4049 299.555 13.4049C299.555 13.4049 295.232 31.2796 291.484 36.181C287.737 41.0824 274.192 49.1558 274.192 49.1558C274.192 49.1558 270.445 53.4785 270.734 55.4986C271.022 57.5186 263.815 45.4077 263.815 45.4077Z" fill="#FFB9B9"/>
<path d="M253.15 76.8329C253.15 76.8329 249.98 74.8147 247.962 78.2743C245.944 81.734 242.197 82.5971 239.891 92.9778C237.585 103.359 232.109 119.79 230.667 120.943C229.224 122.097 223.173 134.206 226.631 151.215H232.396L237.296 126.709C237.296 126.709 253.149 107.105 254.302 99.0322L259.49 129.304C259.49 129.304 259.778 140.836 264.102 146.314L268.714 157.269L274.767 154.386L267.85 126.709C267.85 126.709 271.308 98.7434 269.003 90.9592L268.671 80.7539C268.671 80.7539 259.203 81.1575 253.15 76.8329Z" fill="#090814"/>
<path d="M228.938 156.694H225.479C224.903 156.694 220.291 160.442 222.309 162.46C224.327 164.477 227.497 168.226 227.497 168.226C227.497 168.226 238.738 169.656 239.027 167.637C239.315 165.619 234.127 161.306 234.127 161.306L232.686 156.693C232.686 156.693 229.803 153.522 228.938 156.694Z" fill="#090814"/>
<path d="M274.768 159.576C274.768 159.576 269.868 159.288 269.003 159C268.138 158.712 266.409 166.496 269.003 167.073C271.597 167.649 282.262 168.514 282.262 168.514C282.262 168.514 290.621 168.226 290.044 165.919C289.468 163.613 278.227 159 278.227 159C278.227 159 276.785 156.116 274.768 159.576Z" fill="#090814"/>
<path d="M251.997 45.1196L250.556 44.2547L248.827 45.6961C248.827 45.6961 254.015 49.1558 252.862 52.327C251.709 55.4982 246.809 62.1294 246.809 62.1294C246.809 62.1294 251.131 67.0309 251.131 68.7607C251.131 68.7607 262.372 64.7245 270.731 68.7607C270.731 68.7607 270.731 62.9947 271.884 61.8414C273.037 60.688 273.613 56.6519 270.731 53.1923C268.7 50.6465 266.869 47.9476 265.254 45.1196L262.372 43.3898L260.887 43.862C260.887 43.862 263.813 47.139 260.931 47.4274C258.049 47.7158 253.438 46.8487 251.997 45.1196Z" fill="#6C63FF"/>
<path d="M262.89 12.4902C262.047 13.4311 260.893 14.0358 259.64 14.1931C257.473 14.5026 259.175 17.9085 259.175 17.9085C259.005 17.5079 258.974 17.062 259.086 16.6414C259.198 16.2209 259.446 15.8496 259.793 15.5862C261.033 14.5026 262.89 13.8836 262.89 12.4902Z" fill="#090814"/>
<path d="M258.712 21.2937C260.188 21.2937 261.384 20.0972 261.384 18.6212C261.384 17.1452 260.188 15.9487 258.712 15.9487C257.237 15.9487 256.041 17.1452 256.041 18.6212C256.041 20.0972 257.237 21.2937 258.712 21.2937Z" fill="#090814"/>
<path d="M261.832 21.2523C259.768 20.1738 256.217 19.327 254.33 19.3866L254.808 17.5616C256.478 18.6964 260.01 19.5595 262.309 19.4273L261.832 21.2523Z" fill="#6C63FF"/>
<path d="M257.568 21.4128C257.568 21.4128 254.315 25.5939 247.809 26.5249C241.304 27.456 246.416 37.6791 246.416 37.6791C246.416 37.6791 244.557 33.9611 248.274 30.7078C251.992 27.4545 257.568 25.5939 257.568 21.4128Z" fill="#090814"/>
<path d="M257.815 21.1662C257.815 21.1662 259.674 27.6728 262.462 28.602C265.249 29.5312 263.855 39.2912 259.209 40.2208C259.209 40.2208 263.159 34.8762 260.835 30.6933C258.512 26.5104 257.118 23.256 257.815 21.1662Z" fill="#090814"/>
<path d="M307.771 5.76596H287.882V8.07228H307.771V5.76596Z" fill="#090814"/>
<path d="M307.771 13.8386C308.726 13.8386 309.5 10.7407 309.5 6.9193C309.5 3.09787 308.726 0 307.771 0C306.816 0 306.041 3.09787 306.041 6.9193C306.041 10.7407 306.816 13.8386 307.771 13.8386Z" fill="#090814"/>
<path d="M287.883 13.8386C288.838 13.8386 289.612 10.7407 289.612 6.9193C289.612 3.09787 288.838 0 287.883 0C286.928 0 286.153 3.09787 286.153 6.9193C286.153 10.7407 286.928 13.8386 287.883 13.8386Z" fill="#090814"/>
<path d="M317.859 160.879H297.971V163.186H317.859V160.879Z" fill="#090814"/>
<path d="M317.859 168.952C318.814 168.952 319.588 165.854 319.588 162.033C319.588 158.211 318.814 155.113 317.859 155.113C316.904 155.113 316.13 158.211 316.13 162.033C316.13 165.854 316.904 168.952 317.859 168.952Z" fill="#090814"/>
<path d="M297.971 168.952C298.926 168.952 299.7 165.854 299.7 162.033C299.7 158.211 298.926 155.113 297.971 155.113C297.016 155.113 296.241 158.211 296.241 162.033C296.241 165.854 297.016 168.952 297.971 168.952Z" fill="#090814"/>
</svg>
